<svg width="10" height="10" viewBox="0 0 10 10" fill="none" xmlns="http://www.w3.org/2000/svg">
<path d="M4.16671 7.49992C4.90628 7.49977 5.62454 7.25218 6.20712 6.79658L8.03879 8.62825L8.62796 8.03908L6.79629 6.20742C7.25212 5.62478 7.49986 4.90635 7.50004 4.16658C7.50004 2.32867 6.00462 0.833252 4.16671 0.833252C2.32879 0.833252 0.833374 2.32867 0.833374 4.16658C0.833374 6.0045 2.32879 7.49992 4.16671 7.49992ZM4.16671 1.66659C5.54546 1.66659 6.66671 2.78783 6.66671 4.16658C6.66671 5.54533 5.54546 6.66658 4.16671 6.66658C2.78796 6.66658 1.66671 5.54533 1.66671 4.16658C1.66671 2.78783 2.78796 1.66659 4.16671 1.66659Z" fill="#8E8E8E"/>
</svg>
